<?xml version="1.0" encoding="utf-8"?>
<!-- Generator: Adobe Illustrator 16.0.0, SVG Export Plug-In . SVG Version: 6.00 Build 0)  -->
<!DOCTYPE svg PUBLIC "-//W3C//DTD SVG 1.1//EN" "http://www.w3.org/Graphics/SVG/1.1/DTD/svg11.dtd">
<svg version="1.1" id="图层_1" xmlns="http://www.w3.org/2000/svg" xmlns:xlink="http://www.w3.org/1999/xlink" x="0px" y="0px"
	 width="44px" height="44px" viewBox="0 0 44 44" enable-background="new 0 0 44 44" xml:space="preserve">
<circle fill="#F40C28" cx="22" cy="22" r="21.938"/>
<g>
	<path opacity="0.4" fill="#FFFFFF" enable-background="new    " d="M24.968,22.646c-2.401,0-2.012,2.008-4.661,2.008
		c-1.734,0-3.601-1.664-5.624-2.814c-0.41,1.396-0.669,2.797-0.669,4.139c0,7.604,6.651,8.574,7.986,8.574
		c1.333,0,7.984-0.971,7.984-8.574c0-0.633-0.071-1.277-0.172-1.931C27.744,23.393,26.316,22.646,24.968,22.646z"/>
	<path fill="#FFFFFF" stroke="#FFFFFF" stroke-miterlimit="10" d="M29.764,19.715c-2.345-6.101-6.889-11.451-6.923-11.502
		C22.631,7.966,22.326,7.825,22,7.825s-0.63,0.141-0.841,0.389c-0.022,0.029-2.049,2.429-4.094,5.821
		c-1.021,1.697-2.048,3.643-2.829,5.681c-0.779,2.038-1.318,4.171-1.32,6.263c-0.002,2.061,0.456,3.746,1.197,5.078
		c1.114,2.008,2.826,3.164,4.349,3.799c0.764,0.32,1.487,0.515,2.096,0.633c0.612,0.117,1.098,0.16,1.442,0.16
		c0.454-0.002,1.18-0.072,2.087-0.305c1.349-0.354,3.082-1.07,4.515-2.552c1.438-1.476,2.492-3.726,2.482-6.813
		C31.081,23.887,30.543,21.753,29.764,19.715z M27.965,29.994c-0.818,1.475-2.07,2.33-3.277,2.839
		c-0.601,0.252-1.184,0.411-1.664,0.504c-0.479,0.095-0.866,0.12-1.022,0.119c-0.213,0.002-0.821-0.05-1.535-0.235
		c-1.084-0.277-2.438-0.859-3.484-1.947c-1.042-1.094-1.858-2.68-1.867-5.295c-0.001-1.707,0.457-3.607,1.175-5.481
		c1.074-2.811,2.719-5.55,4.093-7.568c0.625-0.917,1.186-1.676,1.617-2.24c0.829,1.082,2.148,2.903,3.416,5.091
		c1.825,3.127,3.486,6.992,3.473,10.199C28.885,27.723,28.512,29.008,27.965,29.994z"/>
</g>
</svg>
