<?xml version="1.0" encoding="utf-8"?>
<!-- Generator: Adobe Illustrator 16.0.0, SVG Export Plug-In . SVG Version: 6.00 Build 0)  -->
<!DOCTYPE svg PUBLIC "-//W3C//DTD SVG 1.1//EN" "http://www.w3.org/Graphics/SVG/1.1/DTD/svg11.dtd">
<svg version="1.1" id="图层_1" xmlns="http://www.w3.org/2000/svg" xmlns:xlink="http://www.w3.org/1999/xlink" x="0px" y="0px"
	 width="44px" height="44px" viewBox="0 0 44 44" enable-background="new 0 0 44 44" xml:space="preserve">
<circle fill="#F40C28" cx="22" cy="22" r="21.938"/>
<image overflow="visible" width="72" height="88" xlink:href="DC0FD252.jpg"  transform="matrix(0.9999 0 0 0.9999 -7894 -7770.1094)">
</image>
<g>
	<path fill-rule="evenodd" clip-rule="evenodd" fill="none" stroke="#F9F9F9" stroke-width="2" stroke-miterlimit="10" d="
		M28.949,18.203c-0.2,1.3-0.4,2.6-0.601,3.9c1.204-0.613,1.85-0.894,3.9-0.9c-0.583,6.026-1.534,12.262-9,12.299
		c0-0.299,0-0.6,0-0.898c0.5-1,1-2,1.5-3c-0.7,0-1.4,0-2.1,0c0.104-2.172-0.395-4.576-1.801-6.001
		c0.286,1.806-0.053,2.33-0.899,3.601c-1.214-0.148-1.122-0.191-1.8-0.601c0.5,2.2,1,4.399,1.5,6.601c-1,0-2,0-3,0
		c-4.139-1.498-6.605-4.609-5.7-10.201c0.5,0.201,1,0.4,1.5,0.601c-0.971-2.669,0.151-4.242,0.3-7.5c0.3,0,0.6,0,0.9,0
		c0.2,0.1,0.399,0.2,0.6,0.3c0.3,1.199,0.6,2.4,0.9,3.6c0.1,0,0.2,0,0.3,0c0.2-1.899,0.4-3.8,0.6-5.7c0.4,0,0.8,0,1.2,0
		c0.1,0.601,0.2,1.2,0.3,1.8c0.101,0,0.2,0,0.3,0c0.26-4.705,3.169-4.484,3.6-8.7c0.3,0,0.601,0,0.899,0
		c0.2,0.3,0.4,0.6,0.601,0.899c0.894,1.465,0.589,3.852,0,5.4c1.3-0.2,2.6-0.4,3.899-0.6c-0.575,2.469-1.62,3.358-0.299,5.7
		C27.349,18.603,28.149,18.403,28.949,18.203z"/>
</g>
<rect x="10.25" y="36.25" fill="#FCFCFC" width="23.188" height="1.438"/>
</svg>
